<svg xmlns="http://www.w3.org/2000/svg" width="22.676" height="14.597" viewBox="0 0 22.676 14.597">
  <g id="view" transform="translate(0 -82.176)">
    <g id="Group_19417" data-name="Group 19417" transform="translate(7.689 85.825)">
      <g id="Group_19416" data-name="Group 19416" transform="translate(0 0)">
        <path id="Path_53137" data-name="Path 53137" d="M160.065,156.416a3.649,3.649,0,1,0,3.649,3.649A3.652,3.652,0,0,0,160.065,156.416Zm-.277,2.567a.838.838,0,0,0-.831.831H157.75a2.063,2.063,0,0,1,2.039-2.039Z" transform="translate(-156.416 -156.416)" fill="#c9c9e3"/>
      </g>
    </g>
    <g id="Group_19419" data-name="Group 19419" transform="translate(0 82.176)">
      <g id="Group_19418" data-name="Group 19418" transform="translate(0 0)">
        <path id="Path_53138" data-name="Path 53138" d="M22.412,88.72c-1.233-1.535-5.638-6.544-11.074-6.544S1.5,87.184.264,88.72a1.211,1.211,0,0,0,0,1.51C1.5,91.765,5.9,96.773,11.338,96.773s9.84-5.008,11.074-6.544A1.211,1.211,0,0,0,22.412,88.72ZM11.338,94.76a5.285,5.285,0,1,1,5.285-5.285A5.284,5.284,0,0,1,11.338,94.76Z" transform="translate(0 -82.176)" fill="#c9c9e3"/>
      </g>
    </g>
  </g>
</svg>
