<svg xmlns="http://www.w3.org/2000/svg" xmlns:xlink="http://www.w3.org/1999/xlink" width="189.064" height="44" viewBox="0 0 189.064 44">
  <defs>
    <clipPath id="clip-path">
      <ellipse id="Ellipse_1" data-name="Ellipse 1" cx="22.5" cy="22" rx="22.5" ry="22" transform="translate(0 0.466)" fill="#fff"/>
    </clipPath>
  </defs>
  <g id="Group_19448" data-name="Group 19448" transform="translate(12544 23936.535)">
    <path id="Path_53167" data-name="Path 53167" d="M13.093,3.653h2.876l-6.682-14.8H6.581L-.08,3.653H2.753L4.212.227h7.4ZM5.143-1.93,7.913-8.4,10.7-1.93ZM23.9,3.864c4.039,0,6.47-2.347,6.47-6.661v-8.352H27.662V-2.9c0,3.045-1.353,4.356-3.743,4.356S20.155.143,20.155-2.9v-8.246H17.407V-2.8C17.407,1.517,19.838,3.864,23.9,3.864Zm13.046-.211h2.749V-8.823H44.6v-2.326H32.039v2.326h4.906Zm16.429.211c4.588,0,7.971-3.214,7.971-7.612s-3.383-7.612-7.971-7.612S45.4-8.125,45.4-3.748,48.785,3.864,53.373,3.864Zm0-2.41a5.044,5.044,0,0,1-5.2-5.2,5.044,5.044,0,0,1,5.2-5.2,5.044,5.044,0,0,1,5.2,5.2A5.044,5.044,0,0,1,53.373,1.454Zm27.594,2.2-.042-14.8H77.478L72.4-2.606l-5.2-8.542H63.755v14.8h3.869V-3.981L71.41,2.194H73.27l3.806-6.386.042,7.845Zm14.04,0h4.356l-6.555-14.8H88.685l-6.534,14.8h4.271L87.585.777h6.259Zm-6.2-5.963,1.9-4.736,1.9,4.736Zm21.715-8.838v7.887l-6.534-7.887h-3.447v14.8h4.1V-4.234l6.534,7.887h3.447v-14.8Zm7.062,14.8h4.187v-14.8h-4.187Zm18.248,0h4.356l-6.555-14.8h-4.123l-6.534,14.8h4.271L128.415.777h6.259Zm-6.2-5.963,1.9-4.736,1.9,4.736Z" transform="translate(-12495.129 -23910.258)" fill="#1f1deb"/>
    <g id="Mask_Group_31" data-name="Mask Group 31" transform="translate(-12544 -23937)" clip-path="url(#clip-path)">
      <path id="wheel" d="M137.215,7582.788a10.521,10.521,0,0,1-10.489-9.251H132.1a5.288,5.288,0,0,0,10.239,0H147.7a10.521,10.521,0,0,1-10.489,9.251m0-21.145a10.521,10.521,0,0,1,10.489,9.251h-5.369a5.288,5.288,0,0,0-10.239,0h-5.369a10.521,10.521,0,0,1,10.489-9.251m0-2.643a13.215,13.215,0,1,0,13.215,13.215A13.215,13.215,0,0,0,137.215,7559" transform="translate(-114.749 -7549.75)" fill="#1f1deb" fill-rule="evenodd"/>
      <path id="Ellipse_1-2" data-name="Ellipse 1" d="M16.131,0h1.652l.019,0h.075l.02,0h.074l.02,0h.059l.018,0,.016,0h.059l.021,0h.014l.015,0,.014,0,.014,0,.014,0,.021,0,.015,0,.014,0,.014,0,.015,0,.015,0,.021,0,.015,0,.014,0,.014,0,.015,0,.021,0,.014,0,.015,0,.014,0,.014,0,.014,0,.021,0,.015,0,.014,0,.015,0,.014,0,.014,0,.02,0,.015,0,.015,0,.014,0,.014,0,.014,0,.02,0,.015,0,.014,0,.015,0,.014,0,.019,0,.016,0,.014,0,.014,0,.015,0,.014,0,.019,0,.016,0,.014,0,.014,0,.014,0,.014,0,.021,0,.015,0,.014,0,.014,0,.014,0,.014,0,.022,0,.013,0,.014,0,.014,0,.014,0,.014,0,.022,0,.014,0,.014,0,.014,0,.014,0h.006l.03,0,.014,0,.014,0,.014,0,.014,0,.025,0,.01,0,.014,0,.014,0,.014,0,.014,0,.023,0,.012,0,.014,0,.014,0,.014,0,.014,0,.021,0,.014,0,.014,0,.014,0,.014,0,.014,0,.02,0,.014,0,.014,0,.014,0,.014,0,.014,0h0l.026,0,.014,0,.014,0,.014,0,.014,0,.021,0,.014,0,.014,0,.014,0,.014,0,.014,0,.021,0,.014,0,.014,0,.014,0,.014,0,.014,0,.021,0,.014,0,.014,0,.014,0,.014,0,.013,0,.022,0,.014,0,.014,0,.014,0L20.1.4,20.135.4l.013,0,.014,0,.014,0,.014,0,.014,0,.021,0,.014,0,.014,0,.014,0,.014,0,.018,0,.016,0,.014,0,.014,0,.014,0,.014,0,.017,0,.017,0,.015,0,.014,0,.014,0,.014,0,.019,0,.015,0,.014,0,.014,0,.014,0,.014,0,.018,0,.015,0,.014,0,.014,0,.014,0,.014,0,.019,0,.015,0,.014,0,.014,0,.014,0,.014,0,.018,0,.015,0,.014,0,.014,0,.014,0,.014,0,.019,0,.015,0,.014,0,.014,0,.014,0,.015,0,.017,0,.015,0,.014,0,.014,0,.014,0L21,.6h0l.018,0,.015,0,.014,0,.014,0,.014,0,.017,0,.015,0,.014,0,.014,0,.014,0,.029.008h0l.016,0,.015,0,.014,0,.014,0,.029.008.014,0,.014,0,.015,0,.015,0h0l.029.008h0l.014,0,.014,0,.015,0h0l.044.012h0l.013,0,.014,0h0l.013,0h0l.044.012h0l.014,0h0l.013,0h0l.073.021h0l.015,0h0a19.658,19.658,0,0,1,1.977.688h0l.012,0h0l.013.005h0l.042.017h0l.013.005h0l.012,0h0l.012,0h0l.041.017h0l.011,0h0l.01,0h0l.01,0h0l.027.011h0l.011,0,0,0,.01,0,0,0,.009,0,.014.006h0l.026.011h0l.01,0,0,0,.009,0,.014.006,0,0,.01,0h0l.026.011.013.006.013.006.013.006.013.006,0,0,.013.006h0l.011,0,.013.006.013.006.013.006.014.006,0,0,.013.006.013.006.013.006.013.006.013.006.014.006,0,0,.012.006.013.006.013.006.013.006.013.006.006,0,.01,0h0l.012.006.013.006.013.006.013.006.013.006.013.006.009,0,.013.006.013.006.013.006.013.006.013.006.006,0,.013.006.012.006.013.006.013.006.013.006.012.006.005,0,.014.006.012.006.012.006.013.006.013.006,0,0,.014.007.012.006.013.006.013.006.012.006.013.006,0,0,.018.009.009,0,.012.006.012.006.012.006.012.006,0,0,.015.007L24.812,2,24.824,2l.013.006.012.006.013.006,0,0,.015.008.012.006.012.006.012.006.013.006,0,0,.026.013.012.006.012.006L25,2.089l.012.006.006,0,.013.007.012.006.012.006.012.006.012.006.012.006.006,0,.012.006.012.006.012.006.012.006.013.006.012.006,0,0,.013.007.012.006.013.006.012.006.012.006.012.006.008,0,.01.005.012.006.013.007.012.006.012.006.012.006.012.006.012.007.012.006.012.007.012.007L25.4,2.3l0,0,.012.006,0,0,.007,0,.012.007.012.007.012.007.006,0,.008,0,0,0,.012.006,0,0,.007,0,.012.006.013.007.013.007.005,0,.008,0,.007,0,.008,0,.012.007.012.007.012.007.005,0,.007,0,0,0,.012.007h0l.01.006,0,0,.008,0,.012.007.005,0,.008,0,0,0,.009,0,0,0,.012.007h0l.01.006,0,0,.008,0,.012.007,0,0,.008,0,0,0,.01.005h0l.012.007,0,0,.009.005,0,0,.008,0,.012.007,0,0,.008,0,0,0,.012.007h0l.012.007,0,0,.009.005,0,0,.008,0,0,0,.008,0,0,0,.009.005,0,0,.025.014h0l.01.005,0,0,.008,0,0,0,.008,0,0,0,.009.005,0,0,.024.014,0,0,.009.005,0,0,.008,0,0,0,.009,0,0,0,.011.006h0l.013.007h0l.012.007h0l.01.006,0,0,.01.006,0,0,.01.006,0,0,.012.007h0l.025.015,0,0,.009.005,0,0,.009.005,0,0,.01.006,0,0,.025.015h0l.011.007h0l.01.006,0,0,.01.006,0,0,.011.006h0l.025.015h0l.012.007h0l.01.006,0,0,.01.006h0l.011.007h0l.025.015h0l.01.006,0,0,.009.006,0,0,.01.006h0l.012.007h0l.025.015h0l.012.007h0l.01.006h0l.011.007h0l.037.023h0l.011.007h0l.011.007h0l.011.007h0l.037.023h0l.011.007h0l.011.007h0l.012.007h0l.037.023h0l.01.007h0l.011.007h0l.012.008h0l.025.016h0l.012.008h0l.01.007h0l.01.007h0l.037.024h0l.011.007h0l.01.007h0l.011.007h0l.037.024h0l.011.007h0l.011.007h0l.011.007h0L27,3.245h0l.011.007,0,0,.01.007h0l.011.007h0l.037.024h0l.011.007h0l.011.007h0l.012.008h0l.037.025h0l.011.007h0l.011.007h0l.012.008h0l.024.016h0l.01.007,0,0,.01.006,0,0,.01.007h0l.036.025h0l.011.007h0l.01.007,0,0,.01.007h0l.036.025h0l.01.007,0,0,.01.007,0,0,.01.007h0l.036.025,0,0,.009.007,0,0,.009.007,0,0,.011.008h0l.024.017h0l.011.008,0,0,.01.007,0,0,.01.007h0l.011.008h0l.024.017h0l.01.007,0,0,.009.006,0,0,.008.006,0,0,.01.007h0l.023.017,0,0,.009.006,0,0,.008.006,0,0,.009.006,0,0,.011.008h0l.012.008h0l.01.007,0,0,.008.006,0,0,.008.006,0,0,.008.006,0,0,.01.007h0l.011.008,0,0,.009.006,0,0L27.8,3.8l0,0,.007.005,0,0,.008.006,0,0,.023.017,0,0,.008.006,0,0,.007.005,0,0,.007.005,0,0,.007,0,0,0,.01.007,0,0,.009.007,0,0,.007,0,.005,0,.006,0,.006,0,.006,0,.005,0,.006,0,.005,0,.007.005.009.007.005,0,.006,0,.005,0,.006,0,.005,0,.006,0,.005,0,.006,0,0,0,.023.017,0,0,.007,0,0,0,.006,0,0,0,.007,0,0,0,.007.005,0,0,.025.019,0,0,.007.005,0,0,.007.005,0,0,.007.005,0,0,.007.006h0L28.2,4.1l0,0,.008.006,0,0,.008.006,0,0,.008.007h0l.039.03h0l.009.007h0l.009.007h0l.009.007h0l.04.031h0l.01.008h0l.129.1a19.94,19.94,0,0,1,3.494,3.592h0l.053.071h0l.038.051h0l.007.01h0l.007.01h0l.037.05h0l.007.009v0l.007.009h0l.036.05h0l.007.009h0l.007.009h0l.036.05h0l.007.009v0l.006.009h0l.029.04h0l.007.009v0l.006.009h0l.007.009h0l.028.04v0l.006.009v0l.006.009,0,0,.006.009v0l.027.039v0l.006.008,0,0,.006.008,0,0,.006.008v0l.027.039,0,0,.006.009,0,0,.006.009v0l.006.009h0l.021.03h0l.006.009,0,0,.005.008,0,0,.005.008,0,0,.006.009h0l.02.029v0l.006.008,0,0,.005.008,0,0,.005.008,0,0,.026.038,0,0,.006.008,0,0,.005.008,0,0,.005.008,0,0,.005.008v0l.012.017,0,0,0,.007,0,0,0,.007,0,0,0,.007,0,0,.005.008,0,0,.017.026,0,0,0,.007,0,0,0,.007,0,0,0,.007,0,0,0,.007,0,0,.017.026,0,0,0,.007,0,0,0,.007,0,0,0,.007,0,0,0,.007,0,.005.009.013,0,0,0,.006,0,.005,0,.006,0,.005,0,.006,0,.005,0,.006,0,.005,0,.007,0,0,.008.012,0,.005,0,.006,0,.005,0,.006,0,.005,0,.006,0,.006,0,.006,0,.005,0,.006,0,.005.007.011,0,.006,0,.006,0,.006,0,.006,0,.006,0,.006,0,.006,0,.006,0,.006,0,.005.005.008.005.009,0,.006,0,.006,0,.006,0,.006,0,.006,0,.005,0,.007,0,.005,0,.007,0,0,.007.011,0,0,0,.007,0,.005,0,.006,0,.006,0,.006,0,.006,0,.006,0,.006,0,.007,0,0,.007.011,0,0,0,.008,0,.005L33,9.4l0,.005,0,.007,0,.005,0,.007,0,0,.005.009,0,0,.007.012,0,0,.005.009,0,0,0,.008,0,0,0,.007,0,.005,0,.008,0,0,.006.01,0,0,.006.01,0,0,0,.008,0,0,0,.007,0,0,0,.007,0,0,.005.009,0,0,.007.012h0l.006.011,0,0,.005.008,0,0,.005.008,0,0,.005.008,0,0,.006.01v0l.007.012v0l.006.011,0,0,.005.009,0,0,0,.008,0,0,.005.009,0,0,.006.011h0l.007.012,0,0,.006.01,0,0,.005.009,0,0,.005.009,0,0,.006.01v0l.015.025v0l.006.01,0,0,.005.009,0,0,.005.009,0,0,.005.009,0,0L33.3,9.9l0,0,.005.009,0,0,0,.008,0,0,0,.008,0,0,.005.01,0,0,.014.025v0l.006.01,0,0,.005.009,0,0,.005.009,0,0,.007.012h0l.014.025v0l.006.01v0l.006.01v0l.006.011v0l.021.038v0l.006.011v0l.006.01v0l.006.011h0l.021.038v0l.006.011v0l.006.011v0l.028.051h0l.006.011v0l.006.011v0l.021.039h0l.007.012v0l.006.011v0l.006.011h0l.028.052h0l.006.012h0l.007.012h0l.028.052h0l.007.013h0l.028.053h0l.007.013h0l.007.013h0l.034.066h0l.041.079h0l.034.066h0l.007.013h0l.081.161h0A19.681,19.681,0,0,1,35.4,15.155l-1.285.31A18.483,18.483,0,0,0,16.131,1.322V0Zm-14,31.923a18.5,18.5,0,0,0,14,6.4A18.3,18.3,0,0,0,24.6,36.279l.606,1.175a19.7,19.7,0,0,1-7.436,2.126l-.047,0-.047,0h0l-.047,0-.094.007h0l-.063,0-.032,0H17.42l-.047,0h0l-.048,0-.031,0h-.017l-.031,0H14.857l-.031,0h-.55l-.016,0-.016,0-.016,0H14.2l-.016,0-.016,0-.016,0-.016,0-.015,0-.015,0-.016,0-.016,0-.016,0-.016,0-.015,0-.015,0-.016,0-.016,0-.016,0-.015,0h-.015l-.016,0-.016,0-.016,0-.016,0-.016,0-.015,0-.015,0-.016,0-.016,0-.015,0-.016,0-.014,0-.016,0-.016,0-.016,0-.016,0-.015,0-.014,0-.016,0-.016,0-.016,0-.016,0-.015,0-.015,0-.016,0-.016,0-.016,0-.016,0-.015,0-.015,0-.016,0-.016,0-.016,0-.015,0-.015,0-.015,0-.016,0-.016,0-.016,0-.015,0-.015,0-.015,0-.016,0-.016,0-.016,0-.015,0-.014,0-.016,0-.016,0-.016,0-.016,0-.015,0-.014,0-.015,0-.016,0-.016,0-.016,0-.015,0-.015,0L13,39.4l-.016,0-.015,0-.016,0-.015,0-.015,0-.016,0-.016,0-.016,0-.015,0-.014,0-.015,0-.016,0-.016,0-.016,0-.015,0-.014,0-.015,0-.016,0-.016,0-.015,0-.016,0-.013,0-.016,0-.016,0-.016,0-.015,0-.015,0-.014,0-.016,0-.016,0-.016,0-.015,0-.015,0-.014,0-.016,0-.016,0-.015,0-.015,0-.015,0-.014,0-.016,0-.015,0-.016,0-.015,0-.015,0-.015,0-.016,0-.016,0-.016,0-.015,0-.015,0-.014,0-.016,0-.016,0-.016,0-.016,0-.015,0-.014,0-.015,0-.016,0-.016,0-.015,0-.014,0-.015,0-.016,0-.015,0-.016,0-.014,0-.014,0-.015,0-.016,0-.015,0-.016,0-.015,0-.013,0-.016,0-.015,0-.015,0-.015,0-.015,0-.014,0-.016,0-.016,0-.015,0-.015,0-.014,0-.015,0-.016,0-.016,0-.015,0-.016,0-.014,0-.014,0-.015,0-.015,0-.015,0-.015,0-.013,0-.016,0-.015,0-.016,0-.015,0-.015,0-.014,0-.014,0-.015,0-.015,0-.015,0-.015,0-.013,0-.016,0-.015,0-.016,0-.015,0-.014,0-.013,0-.016,0-.015,0-.016,0-.015,0-.016,0-.012,0-.015,0-.015,0-.015,0L11.1,39l-.014,0-.013,0-.015,0-.015,0-.015,0-.016,0-.014,0-.013,0-.016,0-.016,0-.016,0-.015,0-.012,0-.015,0-.016,0-.015,0-.015,0-.015,0-.014,0-.014,0-.015,0-.015,0-.015,0-.014,0-.013,0-.016,0-.016,0-.015,0-.015,0-.017,0-.011,0-.015,0-.015,0-.015,0-.016,0-.016,0-.01,0-.015,0-.016,0-.015,0-.016,0-.015,0-.011,0-.015,0-.016,0-.015,0-.016,0h0l-.023-.007-.015,0-.015,0-.016,0-.016,0h0l-.023-.007h0l-.013,0h0l-.013,0h0l-.014,0h0l-.015,0-.009,0h0l-.014,0h0l-.013,0-.016,0h0l-.013,0h0l-.014,0h0l-.023-.007h0l-.014,0h0l-.013,0h0l-.014,0h0l-.023-.008h0l-.015,0h0l-.013,0h0l-.014,0h0l-.014,0h0l-.023-.008h0l-.015,0h0l-.014,0h0l-.013,0h0l-.015,0h0l-.023-.008h0l-.014,0h0l-.013,0h0l-.013,0h0l-.039-.013h0l-.015,0h0l-.013,0h0l-.013,0h0l-.023-.008h0l-.013,0h0l-.013,0h0l-.014,0h0l-.014,0h0l-.039-.013h0l-.015-.005h0l-.015-.005h0l-.054-.019h0l-.014-.005h0l-.015-.005h0l-.054-.019h0l-.015-.006h0l-.07-.025h0l-.015-.005h0l-.155-.057h0A19.773,19.773,0,0,1,4.6,35.95h0l-.012-.009h0L4.529,35.9h0l-.072-.052h0l-.013-.009h0l-.013-.009h0L4.4,35.8h0l-.012-.009h0l-.012-.009h0l-.045-.033h0l-.012-.009h0L4.3,35.73h0L4.254,35.7h0l-.012-.009h0l-.011-.008h0l-.019-.014h0L4.2,35.651l0,0-.01-.007,0,0-.01-.007,0,0-.009-.007,0,0-.011-.009h0l-.006,0h0L4.124,35.6l0,0-.01-.007,0,0-.01-.008,0,0-.011-.009h0l-.019-.014,0,0-.009-.007,0,0-.01-.008,0,0-.01-.008,0,0-.01-.008,0,0L3.995,35.5l0,0-.01-.008,0,0-.01-.007,0,0-.009-.007,0,0-.01-.008h0l-.006,0h0l-.011-.008,0,0-.01-.008,0,0-.01-.008,0,0-.011-.008,0,0L3.866,35.4h0l-.01-.008,0,0-.009-.007,0,0-.009-.007,0,0-.008-.007,0,0-.005,0L3.8,35.346l-.006,0,0,0-.008-.007,0,0-.008-.006,0,0-.008-.006,0,0L3.749,35.3l0,0-.005,0-.007-.005-.005,0,0,0-.008-.006,0,0L3.7,35.267l0,0-.008-.006,0,0-.006-.005-.006,0-.005,0-.007-.006,0,0-.006,0-.006-.005,0,0-.007-.006,0,0L3.622,35.2l0,0-.007-.006-.01-.008-.007-.006-.005,0-.005,0-.006-.005,0,0-.007-.006,0,0-.006,0-.006,0,0,0-.007-.006-.01-.008-.008-.006,0,0-.008-.007,0,0L3.5,35.1l0,0-.007-.006,0,0-.005,0-.007-.006,0,0-.007-.006,0,0-.005,0-.007-.005,0,0-.006-.005-.006,0,0,0-.008-.006,0,0L3.4,35.016l0,0-.008-.007,0,0L3.376,35l0,0-.006-.005,0,0-.007-.006,0,0-.008-.007,0,0-.008-.007,0,0-.008-.007,0,0-.007-.006,0,0L3.3,34.93l0,0-.007-.006,0,0-.008-.007,0,0L3.261,34.9l0,0-.008-.007,0,0-.007-.006,0,0-.007-.006,0,0-.008-.007,0,0-.008-.007,0,0-.008-.007,0,0-.008-.007,0,0-.007-.006,0,0-.007-.006,0,0L3.149,34.8l0,0-.008-.007,0,0-.008-.007,0,0-.008-.007,0,0L3.1,34.765l0,0-.009-.008,0,0-.009-.008,0,0-.009-.007,0,0-.009-.008,0,0-.009-.008,0,0-.008-.007,0,0L3.026,34.7l0,0-.009-.008,0,0L3,34.676l0,0-.009-.008,0,0-.008-.007,0,0-.009-.008,0,0-.009-.008,0,0-.009-.008,0,0-.009-.008,0,0-.009-.008h0l-.01-.009h0l-.01-.009h0l-.009-.008,0,0-.009-.008,0,0-.009-.008,0,0-.01-.009h0l-.01-.009h0l-.01-.009h0l-.009-.009,0,0-.009-.009,0,0L2.8,34.5l0,0-.01-.009h0l-.01-.009h0l-.01-.009h0l-.01-.009h0l-.01-.009h0l-.01-.009h0l-.021-.019h0l-.01-.009h0l-.01-.009h0l-.01-.009h0l-.01-.01h0l-.022-.02h0l-.01-.01h0l-.01-.009h0l-.01-.01h0l-.054-.05h0L2.5,34.213h0q-.716-.679-1.363-1.426ZM16.131,0V1.322A18.476,18.476,0,0,0,1.075,9.068L0,8.3A19.929,19.929,0,0,1,5.605,3.023h0l.023-.014h0l.038-.024h0l.015-.009h0L5.7,2.96h0l.014-.009h0l.023-.014h0l.015-.009h0l.007,0h0l.013-.008,0,0L5.805,2.9h0L5.82,2.89l0,0,.021-.013,0,0,.012-.007,0,0,.014-.009.006,0,0,0L5.9,2.844l.011-.006.008-.005.011-.007.007,0,.012-.007.006,0,.008,0L5.97,2.8l.008,0,.013-.007L6,2.779l.005,0,.009-.005.012-.007.013-.008,0,0,.009-.005.012-.007.013-.008,0,0,.01-.006.012-.007,0,0L6.12,2.71l0,0,.01-.006,0,0,.008,0,0,0,.01-.006,0,0,.01-.006,0,0,.008,0,0,0,.01-.006,0,0,.01-.006,0,0,.009,0,0,0,.01-.006,0,0,.01-.006,0,0,.009-.005,0,0,.01-.006,0,0,.01-.006h0L6.3,2.6l0,0L6.315,2.6h0l.01-.006h0l.012-.007h0l.012-.007h0l.012-.007h0l.012-.007h0l.038-.022h0l.026-.014h0l.013-.007h0L6.486,2.5h0A19.694,19.694,0,0,1,14.042.109h0l.016,0,.031,0h0L14.1.1l.031,0h0l.047,0h0l.047,0h0l.094-.009h0l.032,0,.047,0h.016l.032,0,.031,0H14.5l.031,0h.016l.031,0h.016l.032,0h.016l.032,0,.047,0,.031,0h.016l.031,0h.016l.031,0h.016l.031,0,.048,0h.1l.031,0h.064l.032,0h.972Z" transform="translate(25.077 -2.957) rotate(45)" fill="#1f1deb"/>
      <path id="Ellipse_2" data-name="Ellipse 2" d="M16.711,0q.225,0,.449.006c.124,0,.246.008.369.014a16.621,16.621,0,0,1,8.617,2.9l.012.008.046.031a16.692,16.692,0,0,1,7.218,13.755h0s0,.009,0,.013,0,0,0,0,0,.007,0,.01,0,0,0,0c0,.05,0,.1,0,.15L32.1,16.875q0-.082,0-.164a15.39,15.39,0,0,0-15.39-15.39V0ZM.008,16.178l1.321.041c-.005.163-.008.329-.008.492A15.39,15.39,0,0,0,16.383,32.1l-.028,1.321Q15.519,33.4,14.7,33.3h0l-.026,0-.013,0-.013,0-.013,0-.013,0h-.013l-.012,0h0l-.012,0h0l-.013,0-.013,0-.013,0-.013,0-.013,0-.013,0-.013,0-.013,0-.013,0-.013,0-.013,0-.013,0-.013,0-.013,0-.013,0-.013,0-.013,0-.013,0-.013,0-.013,0-.013,0-.013,0-.013,0-.013,0-.013,0-.013,0-.013,0-.013,0-.013,0-.012,0-.011,0h0l-.012,0h0l-.012,0h0l-.012,0h0l-.013,0-.012,0h0l-.013,0h0l-.025,0h0l-.229-.038h0l-.012,0h0l-.013,0-.013,0-.013,0-.013,0-.013,0-.013,0-.013,0-.013,0-.013,0-.013,0-.013,0-.013,0-.013,0-.013,0-.013,0-.013,0-.013,0-.013,0-.013,0-.013,0-.013,0-.013,0-.013,0-.013,0-.013,0-.013,0-.013,0-.013,0-.013,0-.013,0-.013,0-.013,0-.013,0-.013,0-.013,0-.013,0-.013,0-.013,0-.013,0-.013,0-.013,0-.013,0-.013,0-.013,0-.013,0-.013,0-.013,0-.012,0-.013,0-.013,0-.013,0-.012,0-.013,0-.012,0-.013,0-.012,0-.013,0-.012,0-.013,0-.012,0-.014,0-.013,0-.013,0-.012,0-.013,0-.013,0-.012,0L12.951,33h0l-.024-.006-.011,0-.011,0-.013,0-.012,0-.012,0-.012,0-.013,0-.013,0-.012,0-.012,0-.013,0-.012,0-.012,0-.012,0-.013,0-.013,0-.012,0-.012,0-.012,0-.013,0-.012,0-.012,0-.013,0-.013,0-.012,0-.013,0-.012,0-.012,0-.012,0-.012,0-.012,0-.013,0-.012,0-.012,0-.012,0-.012,0-.012,0-.012,0-.012,0-.013,0-.012,0-.012,0-.012,0-.013,0-.012,0-.012,0-.012,0-.012,0-.012,0-.012,0-.012,0-.012,0-.012,0-.012,0-.012,0-.012,0-.012,0-.012,0-.012,0-.012,0-.012,0-.012,0-.013,0-.012,0-.012,0-.012,0-.012,0-.012,0-.012,0-.086-.025-.012,0-.012,0-.012,0-.012,0-.012,0-.012,0-.012,0-.012,0-.012,0-.012,0-.012,0-.012,0-.012,0-.012,0-.012,0-.012,0-.012,0-.012,0-.012,0-.012,0-.012,0-.012,0-.012,0-.012,0-.012,0-.012,0-.012,0-.012,0-.012,0-.012,0-.012,0-.012,0-.012,0-.012,0-.012,0-.012,0-.012,0-.012,0-.012,0-.012,0-.012,0-.012,0-.012,0-.012,0-.012,0-.012,0-.012,0-.012,0-.012,0-.012,0-.012,0-.012,0-.012,0-.012,0-.012,0-.012,0-.012,0-.012,0-.012,0-.011,0-.012,0-.012,0-.012,0-.012,0-.013,0-.012,0-.012,0-.011,0-.013,0-.013,0h0l-.1-.034h0l-.011,0-.012,0-.012,0-.012,0-.012,0-.012,0-.012,0-.012,0-.012,0-.012,0-.012,0-.012,0-.012,0-.012,0-.012,0-.012,0-.012,0-.012,0-.012,0-.012,0-.012,0-.012,0-.012,0-.012,0-.012,0-.012,0-.012,0-.012,0-.012,0-.012,0-.012,0-.012,0-.012,0-.012,0-.012,0-.012,0-.012,0-.012,0-.012,0-.012,0-.012,0-.012,0-.012,0-.011,0-.012,0-.012,0-.012,0-.012,0-.012,0-.012,0-.012,0-.012,0-.012,0-.012,0-.012,0-.012,0-.012,0-.012,0h0l-.009,0-.012,0-.011,0-.011,0-.012-.005-.012,0h0l-.009,0h0l-.01,0h0l-.011,0h0l-.01,0h0l-.01,0h0l-.011,0h0l-.093-.04h0l-.011,0h0l-.011,0h0l-.011,0h0l-.01,0h0l-.011,0h0l-.01,0h0l-.01,0h0l-.009,0-.012-.005h0l-.009,0h0l-.009,0h0l-.009,0h0l-.009,0L9.951,32l-.012-.005-.011-.005-.012-.005L9.9,31.978l-.012-.005-.011-.005-.012-.005-.011-.005-.011-.005-.011-.005-.012-.005-.012-.005L9.8,31.931l-.012-.005-.011-.005-.011-.005-.012-.005,0,0-.008,0,0,0-.007,0,0,0-.008,0,0,0-.008,0,0,0-.008,0,0,0-.008,0,0,0-.008,0,0,0-.008,0-.011-.005-.012-.005-.012-.005,0,0-.008,0h0l-.008,0h0l-.008,0-.011-.005-.012-.005-.011-.005-.012-.005-.011-.005,0,0-.009,0h0l-.008,0L9.5,31.792l-.011-.005,0,0-.008,0h0l-.008,0,0,0-.009,0h0l-.009,0h0l-.01-.005h0l-.01,0h0l-.01-.005h0L9.4,31.742h0l-.022-.011h0l-.181-.09h0l-.034-.017h0l-.011-.006h0l-.01,0h0l-.009,0h0l-.009,0h0l-.009,0,0,0-.008,0h0l-.008,0h0l-.009,0h0l-.009,0h0l-.009,0h0l-.009,0h0l-.009,0h0l-.008,0L9,31.542l0,0-.008,0h0l-.009,0h0l-.008,0h0l-.008,0h0l-.008,0,0,0-.008,0,0,0-.008,0,0,0-.008,0h0l-.008,0h0l-.008,0,0,0-.008,0,0,0-.008,0,0,0-.008,0,0,0-.008,0h0l-.008,0,0,0-.008,0,0,0-.008,0h0l-.008,0,0,0-.008,0,0,0-.008,0,0,0-.008,0,0,0-.008,0-.011-.006,0,0-.008,0,0,0-.008,0,0,0-.008,0L8.7,31.382l0,0-.008,0,0,0-.008,0h0l-.009,0h0l-.008,0h0l-.009,0h0l-.01-.005h0l-.01-.006h0l-.01-.006h0l-.01-.006h0l-.011-.006h0l-.011-.006h0l-.011-.006h0q-.132-.074-.263-.15h0l-.043-.025h0l-.01-.006h0l-.01-.006h0l-.01-.006h0l-.01-.006h0l-.01-.006h0l-.01-.006h0l-.01-.006h0l-.01-.006h0l-.009-.006h0l-.01-.006h0l-.009-.006h0l-.009-.005h0l-.009-.005h0l-.009-.006h0L8.1,31.036h0L8.09,31.03h0l-.009-.005h0l-.009-.005h0l-.009-.005h0L8.047,31h0L8.036,31h0l-.009-.005h0l-.009-.005h0L8,30.977H8l-.009-.005h0l-.009-.006h0l-.009-.006h0l-.009-.005h0l-.009-.006h0l-.009-.006h0l-.009-.006h0l-.009-.006h0l-.009-.006h0L7.9,30.911h0l-.01-.006h0L7.875,30.9h0l-.01-.006h0l-.01-.006h0l-.01-.006h0l-.01-.006h0l-.021-.013h0L7.8,30.85h0l-.01-.007h0Q7.6,30.723,7.41,30.6h0l-.021-.014h0l-.01-.007h0l-.01-.007h0l-.01-.007h0l-.01-.007h0l-.01-.007h0l-.01-.007h0l-.01-.007h0l-.01-.007h0l-.01-.007h0l-.01-.007h0l-.01-.007h0l-.01-.007h0l-.01-.007h0l-.01-.007h0l-.01-.007h0l-.01-.007h0l-.01-.007h0l-.01-.007h0l-.02-.014h0l-.021-.014h0a16.74,16.74,0,0,1-6.512-9.09h0l-.007-.024h0l0-.012h0l0-.012h0l0-.011h0l0-.012h0l0-.012h0l0-.012h0l0-.012h0l0-.012h0l0-.012h0l0-.011h0l0-.011h0l0-.011h0l0-.011h0l0-.011h0l0-.012h0l0-.011h0l0-.011h0l0-.011h0l0-.011h0l0-.011h0l0-.012h0l0-.012h0l0-.012h0l0-.012h0l0-.012h0l0-.012h0l-.007-.025h0q-.059-.225-.112-.452h0l0-.012h0l0-.012h0l0-.011h0l0-.012h0l0-.012h0l0-.012h0l0-.012h0l0-.011v0l0-.011v0l0-.01v0l0-.01v0l0-.01v0l0-.011v0l0-.011v0l0-.01v0l0-.01v0l0-.01v0l0-.01v0l0-.01v0l0-.01v0l0-.01v0l0-.01v0l0-.01v0l0-.01v0l0-.01v0l0-.01v0l0-.01v0l0-.01v0l0-.01v0l0-.01v0l0-.01v0l0-.01v0l0-.01v0l0-.01v0l0-.01v0l0-.01v0l0-.01v0l0-.011v0l0-.011v0l0-.011v0l0-.011v0l0-.011v0l0-.011h0l0-.011v0l0-.012h0l0-.012h0l0-.012h0l0-.012h0l0-.025h0q-.025-.128-.047-.257h0l0-.013h0l0-.012h0l0-.012h0l0-.011v0l0-.011v0l0-.011v0l0-.011v0l0-.011v0l0-.01v0l0-.01v0l0-.01v0l0-.009v-.017l0-.009v0l0-.009v-.572h0v-.013l0-.012h0c-.006-.048-.012-.1-.018-.144v-.9c0-.027,0-.053,0-.08v-.967s0-.007,0-.01,0,0,0,0,0-.009,0-.013H0S0,16.7,0,16.7s0,0,0,0,0-.008,0-.012v0s0-.007,0-.011v-.028H0v-.377c0-.029,0-.059,0-.088Z" transform="translate(22.466 -1.167) rotate(45)" fill="#1f1deb"/>
    </g>
  </g>
</svg>
