<svg xmlns="http://www.w3.org/2000/svg" width="17.682" height="18" viewBox="0 0 17.682 18">
  <path id="setting" d="M18.093,11.593a.9.9,0,0,1,0-1.188l1.152-1.3a.9.9,0,0,0,.108-1.053l-1.8-3.114a.9.9,0,0,0-.963-.432L14.9,4.852a.9.9,0,0,1-1.035-.594l-.549-1.647A.9.9,0,0,0,12.46,2h-3.6a.9.9,0,0,0-.9.612l-.5,1.647a.9.9,0,0,1-1.035.594L4.685,4.511a.9.9,0,0,0-.9.432l-1.8,3.114a.9.9,0,0,0,.09,1.053l1.143,1.3a.9.9,0,0,1,0,1.188l-1.143,1.3a.9.9,0,0,0-.09,1.053l1.8,3.114a.9.9,0,0,0,.963.432l1.692-.342a.9.9,0,0,1,1.035.594l.549,1.647a.9.9,0,0,0,.9.612h3.6a.9.9,0,0,0,.855-.612l.549-1.647a.9.9,0,0,1,1.035-.594l1.692.342a.9.9,0,0,0,.963-.432l1.8-3.114a.9.9,0,0,0-.108-1.053ZM16.753,12.8l.72.81-1.152,2-1.062-.216a2.7,2.7,0,0,0-3.1,1.8L11.812,18.2h-2.3l-.324-1.026a2.7,2.7,0,0,0-3.1-1.8l-1.062.216L3.848,13.6l.72-.81a2.7,2.7,0,0,0,0-3.6l-.72-.81L5,6.4l1.062.216a2.7,2.7,0,0,0,3.1-1.8L9.509,3.8h2.3l.342,1.026a2.7,2.7,0,0,0,3.1,1.8l1.062-.216,1.152,2-.72.81a2.7,2.7,0,0,0,0,3.582ZM10.66,7.4a3.6,3.6,0,1,0,3.6,3.6A3.6,3.6,0,0,0,10.66,7.4Zm0,5.4a1.8,1.8,0,1,1,1.8-1.8A1.8,1.8,0,0,1,10.66,12.8Z" transform="translate(-1.856 -1.998)" fill="#fff"/>
</svg>
